<svg version="1.0" xmlns="http://www.w3.org/2000/svg"
 width="24.000000pt" height="24.000000pt" viewBox="0 0 24.000000 24.000000"
 preserveAspectRatio="xMidYMid meet">

<g transform="translate(0.000000,24.000000) scale(0.100000,-0.100000)"
fill="#000000" stroke="none">
<path d="M64 216 c-10 -26 1 -51 24 -54 15 -2 22 2 22 12 0 9 5 16 10 16 6 0
10 -7 10 -16 0 -10 7 -14 23 -12 16 2 23 11 25 31 4 35 -25 49 -45 21 -13 -18
-15 -18 -24 -1 -12 21 -38 22 -45 3z"/>
<path d="M12 188 c-15 -15 -15 -31 -1 -45 15 -15 39 -5 39 17 0 26 -23 43 -38
28z"/>
<path d="M202 188 c-16 -16 -15 -45 2 -51 15 -6 36 11 36 29 0 21 -25 35 -38
22z"/>
<path d="M66 138 c-28 -16 -19 -61 19 -98 l35 -34 35 34 c36 35 47 81 24 96
-18 10 -95 12 -113 2z"/>
</g>
</svg>
