<svg xmlns="http://www.w3.org/2000/svg" viewBox="0 0 60 60" style="enable-background:new 0 0 512 512" xml:space="preserve">
  <path xmlns="http://www.w3.org/2000/svg" d="M36 48a1 1 0 0 0-1 1 2 2 0 1 1-4 0v-3.125A5.539 5.539 0 0 0 35 41c0-3-3.764-3-5-3s-5 0-5 3a5.539 5.539 0 0 0 4 4.874V49a2 2 0 1 1-4 0 1 1 0 0 0-2 0 3.983 3.983 0 0 0 7 2.618A3.983 3.983 0 0 0 37 49a1 1 0 0 0-1-1Zm-9-7c0-.3 0-1 3-1s3 .7 3 1a3.408 3.408 0 0 1-3 3 3.408 3.408 0 0 1-3-3Z" data-original="#000000"/>
  <path xmlns="http://www.w3.org/2000/svg" d="m58.876 41.009-2.273.284A23.124 23.124 0 0 0 57 37a36.743 36.743 0 0 0-1.662-11.16c7.784-10.023 3.885-19.282 1.815-22.833a4.022 4.022 0 0 0-4.288-1.924c-7.828 1.639-12.131 5.056-14.2 7.267a28.516 28.516 0 0 0-17.334 0c-2.067-2.211-6.37-5.628-14.2-7.268a4.02 4.02 0 0 0-4.285 1.926C.777 6.558-3.122 15.817 4.662 25.84A36.743 36.743 0 0 0 3 37a23.124 23.124 0 0 0 .4 4.292l-2.273-.284a1 1 0 0 0-.248 1.985l3.022.377a19.554 19.554 0 0 0 1.535 3.741l-3.675.919A1 1 0 0 0 2 50a1.015 1.015 0 0 0 .243-.029L6.53 48.9C10.931 55.263 19.209 59 30 59s19.069-3.738 23.47-10.1l4.288 1.072A1.015 1.015 0 0 0 58 50a1 1 0 0 0 .241-1.97l-3.675-.919a19.554 19.554 0 0 0 1.534-3.74l3.022-.377a1 1 0 0 0-.248-1.985ZM44.505 11.136a21.661 21.661 0 0 1 8.13-3.836 13.23 13.23 0 0 1-.235 12.046 25.6 25.6 0 0 0-7.895-8.21Zm8.766-8.095a2.036 2.036 0 0 1 2.155.974 17.374 17.374 0 0 1-.9 19.56c-.3-.747-.636-1.47-.99-2.175a15.228 15.228 0 0 0 .91-14.944 2 2 0 0 0-2.32-1.1 23.131 23.131 0 0 0-9.461 4.7 24.984 24.984 0 0 0-1.95-.938c2.067-1.99 5.932-4.69 12.556-6.077Zm-48.7.975a2.029 2.029 0 0 1 2.152-.975c6.629 1.387 10.495 4.087 12.561 6.079-.667.285-1.316.6-1.95.938a23.13 23.13 0 0 0-9.462-4.7 2 2 0 0 0-2.319 1.1 15.228 15.228 0 0 0 .91 14.942 29.42 29.42 0 0 0-.99 2.175 17.375 17.375 0 0 1-.9-19.559ZM7.6 19.346a13.248 13.248 0 0 1-.235-12.052 21.76 21.76 0 0 1 8.13 3.842 25.587 25.587 0 0 0-7.895 8.21ZM52.51 46.6l-2.268-.567a1 1 0 0 0-.484 1.941l1.566.391C47.158 53.814 39.671 57 30 57s-17.158-3.186-21.324-8.637l1.566-.391a1 1 0 0 0-.484-1.941L7.49 46.6a17.557 17.557 0 0 1-1.377-2.95l2.763.346A1.059 1.059 0 0 0 9 44a1 1 0 0 0 .123-1.992L5.5 41.557A20.467 20.467 0 0 1 5 37C5 20.516 15.28 9 30 9s25 11.516 25 28a20.467 20.467 0 0 1-.5 4.556l-3.622.452A1 1 0 0 0 51 44a1.059 1.059 0 0 0 .125-.007l2.763-.346A17.557 17.557 0 0 1 52.51 46.6Z" data-original="#000000"/>
  <path xmlns="http://www.w3.org/2000/svg" d="M23.253 24.851a1 1 0 0 0 .757-.954 5.991 5.991 0 0 1 11.98 0 1 1 0 0 0 .757.954.963.963 0 0 0 .243.03 1 1 0 0 0 .874-.513 9 9 0 1 0-15.728 0 1 1 0 0 0 1.117.483ZM30 13a7.009 7.009 0 0 1 7 7v.152a7.973 7.973 0 0 0-14 0V20a7.009 7.009 0 0 1 7-7ZM17 30a6.007 6.007 0 0 0-6 6 1 1 0 0 0 2 0 4 4 0 0 1 8 0 1 1 0 0 0 2 0 6.007 6.007 0 0 0-6-6Zm26 0a6.007 6.007 0 0 0-6 6 1 1 0 1 0 2 0 4 4 0 0 1 8 0 1 1 0 1 0 2 0 6.007 6.007 0 0 0-6-6Z" data-original="#000000"/>
</svg>
