<svg xmlns="http://www.w3.org/2000/svg" style="enable-background:new 0 0 512 512" xml:space="preserve" viewBox="0 0 512 512">
  <g xmlns="http://www.w3.org/2000/svg">
    <path d="M440.21 322.949c-3.138-13.032-1.578-24.951-.201-35.466.968-7.396 1.948-14.921 1.009-22.032 35.731-76.682 23.925-203.497-3.21-246.985C430.355 6.522 421.686.335 412.034.029c-.1-.008-.201-.007-.301-.012-.149-.002-.297-.017-.447-.017-.061 0-.118.003-.178.004l-.161.003c-18.157.072-30.44 5.842-42.311 19.874-10.823 12.794-21.612 33.074-37.944 63.773-6.812 12.807-14.434 27.133-23.489 43.65-8.952-1.872-18.561-1.467-29.875-.982-6.226.266-13.283.567-21.329.567s-15.103-.302-21.329-.567c-11.312-.484-20.922-.889-29.874.983-9.054-16.517-16.676-30.843-23.489-43.648-16.332-30.7-27.121-50.981-37.944-63.775C131.489 5.846 119.204.076 101.04.007l-.135-.003c-.065 0-.127-.004-.193-.004-.164 0-.325.016-.489.019-.083.004-.167.004-.25.01-9.65.302-18.319 6.483-25.772 18.419-27.135 43.46-38.958 170.306-3.221 247.002-.939 7.112.042 14.638 1.01 22.033 1.376 10.516 2.937 22.434-.201 35.466-.572 2.377-1.236 4.874-1.939 7.518-8.926 33.579-22.415 84.324 65.558 178.365a10.001 10.001 0 0 0 7.303 3.168h226.577c2.768 0 5.412-1.147 7.303-3.168 87.973-94.041 74.484-144.786 65.559-178.365-.704-2.644-1.368-5.141-1.94-7.518zm2.904-190.558c1.429 41.749-3.892 81.227-14.763 111.318-10.148-9.987-29.959-30.123-49.005-50.275-12.878-54.541-5.953-145.572 33.863-172.817 1.947 1.07 4.636 3.637 7.631 8.438 12.043 19.299 20.786 59.862 22.274 103.336zm-94.765-39.343c5.479-10.299 10.23-19.19 14.459-26.868-2.445 8.539-4.236 16.98-5.546 24.802-4.048 24.179-4.79 51.178-2.386 75.966-5.901-6.585-11.073-12.562-15.006-17.437-4.916-6.093-9.635-10.649-14.33-14.053 8.762-16.006 16.169-29.927 22.809-42.41zm-161.891 42.411c-4.696 3.404-9.414 7.96-14.33 14.052-3.933 4.875-9.104 10.851-15.005 17.436 2.402-24.77 1.663-51.75-2.379-75.92-1.31-7.836-3.105-16.294-5.554-24.849 4.229 7.679 8.981 16.572 14.461 26.872 6.64 12.482 14.046 26.403 22.807 42.409zm-117.571-3.135c1.495-43.459 10.24-84.001 22.279-103.284 2.992-4.793 5.678-7.356 7.624-8.425 39.832 27.251 46.748 118.252 33.864 172.817-19.047 20.153-38.858 40.289-49.006 50.276-10.878-30.105-16.198-69.613-14.761-111.384zM364.925 492H147.073c-77.177-83.826-66.05-125.713-57.894-156.396.734-2.761 1.427-5.368 2.054-7.974 4.005-16.636 2.11-31.111.587-42.743-1.756-13.414-2.065-19.267 2.016-23.185 14.873-14.277 71.844-72.351 93.857-99.634 13.832-17.144 21.968-16.8 46.124-15.765 6.426.274 13.709.585 22.182.585 3.536 0 6.854-.056 10.001-.139V265.89c0 14.469 6.214 35.302 35.813 52.418 39.314 23.572 35.887 57.341 35.376 61.062-.737 2.814-9.876 9.586-16.55 14.53-3.488 2.584-7.441 5.513-11.532 8.728-15.945 12.528-30.428 13.652-43.109 3.386v-15c17.747-4.6 30.085-20.875 30.085-35.669 0-13.509-10.53-27.944-40.085-27.944s-40.086 14.436-40.086 27.944c0 14.794 12.338 31.07 30.086 35.67v15c-12.682 10.266-27.165 9.142-43.109-3.385-4.091-3.215-8.044-6.144-11.532-8.728-6.673-4.944-15.813-11.716-16.54-14.476-.521-3.775-3.948-37.543 35.366-61.116 29.6-17.116 35.814-37.949 35.814-52.418V228.79c0-5.522-4.477-10-10-10s-10 4.478-10 10v37.102c0 13.4-8.709 25.223-25.886 35.14a9.628 9.628 0 0 0-.136.08c-20.156 12.065-33.881 27.89-40.794 47.034-5.954 16.487-4.702 30.202-4.176 34.013 1.491 10.805 11.119 17.938 24.446 27.813 3.546 2.627 7.213 5.344 11.082 8.384 22.503 17.68 45.923 19.4 65.466 5.211 8.709 6.323 18.187 9.488 28.012 9.487 12.221 0 24.979-4.897 37.453-14.698 3.869-3.04 7.536-5.757 11.082-8.384 13.327-9.875 22.955-17.009 24.446-27.813.526-3.811 1.778-17.525-4.176-34.013-6.913-19.145-20.638-34.969-40.794-47.034a9.628 9.628 0 0 0-.136-.08C294.709 291.112 286 279.289 286 265.89V145.999c18.302-.571 26.086.924 38.305 16.07 22.013 27.283 78.984 85.356 93.857 99.634 4.081 3.918 3.771 9.771 2.016 23.185-1.522 11.632-3.417 26.107.588 42.743.627 2.605 1.32 5.213 2.054 7.975 8.155 30.681 19.282 72.568-57.895 156.394zM255.999 372.29c-11.461 0-20.086-10.281-20.086-16.947 0-5.458 10.412-7.944 20.086-7.944s20.085 2.486 20.085 7.944c.001 6.666-8.624 16.947-20.085 16.947z" data-original="#000000"/>
    <path d="M170.314 271.365c5.918-2.259 15.28 1.456 20.443 8.112a9.983 9.983 0 0 0 7.908 3.872 9.966 9.966 0 0 0 6.123-2.1c4.364-3.385 5.157-9.667 1.772-14.03-10.611-13.681-29.261-19.932-43.381-14.538-5.159 1.97-7.745 7.749-5.775 12.909 1.97 5.159 7.75 7.747 12.91 5.775zm178.505-18.683c-14.123-5.392-32.771.858-43.381 14.539-3.385 4.363-2.592 10.646 1.772 14.03a9.96 9.96 0 0 0 6.123 2.1 9.985 9.985 0 0 0 7.908-3.872c5.165-6.657 14.528-10.368 20.444-8.113 5.159 1.969 10.939-.615 12.91-5.774 1.969-5.161-.617-10.941-5.776-12.91zm-112.817-58.894c5.523 0 10-4.478 10-10s-4.477-10-10-10h-.007c-5.523 0-9.996 4.478-9.996 10s4.48 10 10.003 10z" data-original="#000000"/>
  </g>
</svg>
