<svg xmlns="http://www.w3.org/2000/svg" viewBox="0 0 128 128" style="enable-background:new 0 0 512 512" xml:space="preserve">
  <g xmlns="http://www.w3.org/2000/svg">
    <path d="M88.366 10.45A34.426 34.426 0 0 0 64 20.582 34.386 34.386 0 0 0 8.031 58.393c.036.08.893 1.955 1.395 2.876C29.016 96.443 62.757 117.093 63.1 117.3a1.751 1.751 0 0 0 1.81 0c.338-.2 34.079-20.855 53.677-56.043.494-.907 1.351-2.782 1.4-2.9a34.4 34.4 0 0 0-31.62-47.9zm28.419 46.49c-.009.019-.841 1.842-1.268 2.626C98.175 90.7 69.45 110.214 64 113.73c-5.45-3.516-34.174-23.025-51.509-54.15-.432-.794-1.259-2.6-1.259-2.6A30.884 30.884 0 0 1 62.694 24.3a1.806 1.806 0 0 0 2.612 0 30.887 30.887 0 0 1 51.479 32.64z" data-original="#000000"/>
    <path d="M64 52.965c-7.078 0-14.951 5.022-19.593 12.5-3.8 6.124-4.563 12.509-2.085 17.517 2.907 5.877 8.81 8.4 16.616 7.095a30.661 30.661 0 0 1 10.124 0 23.5 23.5 0 0 0 3.857.335c5.893 0 10.352-2.565 12.759-7.43 2.478-5.008 1.717-11.393-2.085-17.517-4.642-7.478-12.515-12.5-19.593-12.5zm18.541 28.462c-2.228 4.5-6.569 6.251-12.9 5.195a34.123 34.123 0 0 0-11.276 0c-6.334 1.054-10.676-.692-12.9-5.195-1.929-3.9-1.229-9.045 1.921-14.118 3.965-6.385 10.8-10.844 16.62-10.844s12.655 4.459 16.62 10.844c3.143 5.073 3.844 10.219 1.915 14.118zM54.54 51.263c4.416 0 8.009-4.242 8.009-9.456s-3.593-9.456-8.009-9.456-8.01 4.242-8.01 9.456 3.593 9.456 8.01 9.456zm0-15.412c2.486 0 4.509 2.672 4.509 5.956s-2.023 5.956-4.509 5.956-4.51-2.672-4.51-5.956 2.023-5.956 4.51-5.956zm18.92 15.412c4.417 0 8.01-4.242 8.01-9.456s-3.593-9.456-8.01-9.456-8.009 4.242-8.009 9.456 3.593 9.456 8.009 9.456zm0-15.412c2.487 0 4.51 2.672 4.51 5.956s-2.023 5.956-4.51 5.956-4.509-2.672-4.509-5.956 2.023-5.956 4.509-5.956zM46.464 53.434c0-4.635-3.209-8.4-7.154-8.4s-7.156 3.77-7.156 8.4 3.21 8.4 7.156 8.4 7.154-3.766 7.154-8.4zm-7.154 4.9c-1.982 0-3.656-2.246-3.656-4.9s1.674-4.9 3.656-4.9 3.654 2.246 3.654 4.9-1.674 4.904-3.654 4.904zm49.38-13.305c-3.945 0-7.155 3.77-7.155 8.4s3.21 8.4 7.155 8.4 7.156-3.77 7.156-8.4-3.21-8.4-7.156-8.4zm0 13.309c-1.981 0-3.655-2.246-3.655-4.9s1.674-4.9 3.655-4.9 3.656 2.246 3.656 4.9-1.674 4.9-3.656 4.9z" data-original="#000000"/>
  </g>
</svg>
