<svg xmlns="http://www.w3.org/2000/svg" viewBox="0 0 128 128" style="enable-background:new 0 0 512 512" xml:space="preserve">
  <g xmlns="http://www.w3.org/2000/svg">
    <path d="M88.365 12.2A32.548 32.548 0 0 0 64 23.133 32.636 32.636 0 0 0 9.623 57.667s.862 1.888 1.332 2.75C30.545 95.592 64 115.8 64 115.8s33.455-20.208 53.045-55.383c.471-.862 1.332-2.75 1.332-2.75A32.646 32.646 0 0 0 88.365 12.2z" fill="#DA0B0B" data-original="#f95353"/>
    <g fill="#e492e7">
      <path d="M64 54.715c12.333 0 25.525 16.542 20.109 27.488-3.287 6.646-10 6.939-14.759 6.145a32.509 32.509 0 0 0-10.7 0c-4.763.794-11.472.5-14.76-6.145C38.475 71.257 51.667 54.715 64 54.715z" data-original="#ffd3c2"/>
      <ellipse cx="54.539" cy="41.807" rx="6.259" ry="7.706" data-original="#000000"/>
      <ellipse cx="73.461" cy="41.807" rx="6.259" ry="7.706" data-original="#000000"/>
      <path d="M44.715 53.434c0 3.675-2.42 6.654-5.406 6.654s-5.4-2.979-5.4-6.654 2.42-6.655 5.4-6.655 5.406 2.979 5.406 6.655zm38.57 0c0 3.675 2.42 6.654 5.406 6.654s5.409-2.979 5.409-6.654-2.42-6.655-5.405-6.655-5.41 2.979-5.41 6.655z" data-original="#000000"/>
    </g>
    <g fill="#040000">
      <path d="M100.846 80.785q-1.43 1.718-2.872 3.352a1.75 1.75 0 0 0 2.626 2.314q1.472-1.672 2.935-3.426a1.75 1.75 0 1 0-2.689-2.24zM91.767 90.8A170.732 170.732 0 0 1 64 113.73c-5.447-3.513-34.174-23.023-51.51-54.15-.432-.794-1.259-2.6-1.259-2.6a30.922 30.922 0 0 1 2.514-28.991 1.75 1.75 0 0 0-2.932-1.912 34.421 34.421 0 0 0-2.782 32.316c.036.08.893 1.955 1.395 2.876C29.016 96.443 62.757 117.093 63.1 117.3a1.751 1.751 0 0 0 1.81 0 166.233 166.233 0 0 0 29.353-24.045 1.75 1.75 0 1 0-2.5-2.454zm-3.401-80.35A34.426 34.426 0 0 0 64 20.582a34.374 34.374 0 0 0-46.7-1.89 1.75 1.75 0 0 0 2.274 2.66 30.877 30.877 0 0 1 43.12 2.948 1.806 1.806 0 0 0 2.612 0 30.887 30.887 0 0 1 51.479 32.64c-.009.019-.841 1.842-1.268 2.626a133.847 133.847 0 0 1-8.94 13.892 1.75 1.75 0 1 0 2.823 2.069 137.371 137.371 0 0 0 9.182-14.272c.494-.907 1.351-2.782 1.4-2.9a34.4 34.4 0 0 0-31.62-47.9z" data-original="#000000"/>
      <path d="M42.322 82.979c2.907 5.877 8.81 8.4 16.616 7.095a30.661 30.661 0 0 1 10.124 0 23.5 23.5 0 0 0 3.857.335c5.893 0 10.352-2.565 12.759-7.43 2.478-5.008 1.717-11.393-2.085-17.517-4.642-7.475-12.515-12.5-19.593-12.5s-14.951 5.022-19.593 12.5c-3.807 6.124-4.563 12.509-2.085 17.517zM64 56.465c5.821 0 12.655 4.459 16.62 10.844 3.149 5.073 3.85 10.219 1.921 14.118-2.228 4.5-6.569 6.251-12.9 5.195a34.123 34.123 0 0 0-11.276 0c-6.334 1.054-10.676-.692-12.9-5.195-1.929-3.9-1.229-9.045 1.921-14.118C51.345 60.924 58.179 56.465 64 56.465zm-9.46-5.202c4.416 0 8.009-4.242 8.009-9.456s-3.593-9.456-8.009-9.456-8.01 4.242-8.01 9.456 3.593 9.456 8.01 9.456zm0-15.412c2.486 0 4.509 2.672 4.509 5.956s-2.023 5.956-4.509 5.956-4.51-2.672-4.51-5.956 2.023-5.956 4.51-5.956zm26.93 5.956c0-5.214-3.593-9.456-8.01-9.456s-8.009 4.242-8.009 9.456 3.593 9.456 8.009 9.456 8.01-4.242 8.01-9.456zm-12.519 0c0-3.284 2.023-5.956 4.509-5.956s4.51 2.672 4.51 5.956-2.023 5.956-4.51 5.956-4.509-2.672-4.509-5.956zM39.31 45.029c-3.946 0-7.156 3.77-7.156 8.4s3.21 8.4 7.156 8.4 7.154-3.77 7.154-8.4-3.209-8.4-7.154-8.4zm0 13.309c-1.982 0-3.656-2.246-3.656-4.9s1.674-4.9 3.656-4.9 3.654 2.246 3.654 4.9-1.674 4.9-3.654 4.9zm49.38-13.309c-3.945 0-7.155 3.77-7.155 8.4s3.21 8.4 7.155 8.4 7.156-3.77 7.156-8.4-3.21-8.4-7.156-8.4zm0 13.309c-1.981 0-3.655-2.246-3.655-4.9s1.674-4.9 3.655-4.9 3.656 2.246 3.656 4.9-1.674 4.9-3.656 4.9z" data-original="#000000"/>
    </g>
  </g>
</svg>
