<svg xmlns="http://www.w3.org/2000/svg" style="enable-background:new 0 0 512 512" xml:space="preserve" viewBox="0 0 512 512">
  <g xmlns="http://www.w3.org/2000/svg">
    <g fill="#fff">
      <path d="M484.5 114.5v360c0 16.57-13.43 30-30 30h-4.97c-151.03-29.107-241.704-134.53-241.704-250 0-51.48 33.674-102.476 104.754-140z" data-original="#a5b0bd"/>
      <path d="M449.53 504.5H178.5c-16.57 0-30-13.43-30-30v-360h164.08c-25.43 40.65-40.12 88.69-40.12 140.17 0 115.47 73.95 213.67 177.07 249.83z" data-original="#97a4b2"/>
    </g>
    <g fill="#fff">
      <path d="M494.5 137.5h-356c-5.523 0-10-4.477-10-10v-10c0-22.091 17.909-40 40-40h296c22.091 0 40 17.909 40 40v10c0 5.523-4.477 10-10 10z" data-original="#8697a6"/>
      <path d="M241.5 57.5v50h150v-50c0-27.614-22.386-50-50-50h-50c-27.614 0-50 22.386-50 50zm120 20h-90v-20c0-11.046 8.954-20 20-20h50c11.046 0 20 8.954 20 20z" data-original="#8697a6"/>
    </g>
    <g fill="#ffa1ac">
      <ellipse cx="236.943" cy="224.616" rx="29.355" ry="23.377" data-original="#ffa1ac"/>
      <ellipse cx="396.057" cy="224.616" rx="29.355" ry="23.377" data-original="#ffa1ac"/>
    </g>
    <path d="M423.5 434.5v-160c0-11.046-8.954-20-20-20s-20 8.954-20 20v160c0 11.046 8.954 20 20 20s20-8.954 20-20zm-170 0v-160c0-11.046-8.954-20-20-20s-20 8.954-20 20v160c0 11.046 8.954 20 20 20s20-8.954 20-20zm85 0v-160c0-11.046-8.954-20-20-20s-20 8.954-20 20v160c0 11.046 8.954 20 20 20s20-8.954 20-20z" data-original="#8697a6" fill="#fff"/>
    <g fill="#fff">
      <path d="M266.579 459.59c-2.41 25.53-24.1 44.91-49.74 44.91h-18.45c-73.118-25.286-117.166-81.243-117.166-143.623 0-40 39.204-94.449 72.716-113.637 82.5 62.95 120.06 133.73 112.64 212.35z" data-original="#93bce8"/>
      <path d="M198.389 504.5H58.159c-25.64 0-47.33-19.38-49.74-44.91-7.9-83.67 35.15-158.45 129.08-224.38 5.67 3.98 11.15 7.99 16.44 12.03-21.86 30.04-34.75 67.01-34.75 107.01 0 62.38 31.37 117.44 79.2 150.25z" data-original="#7fb0e4"/>
    </g>
    <path d="M164.86 174.5h-54.723c-14.358 0-24.039 14.681-18.383 27.878l21.666 50.554 47.644 1.196 22.179-51.75c5.656-13.197-4.024-27.878-18.383-27.878z" fill="#fff" data-original="#93bce8"/>
    <g fill="#ffa1ac">
      <ellipse cx="56.856" cy="430.071" rx="29.756" ry="23.696" data-original="#ffa1ac"/>
      <ellipse cx="218.141" cy="430.21" rx="29.756" ry="23.696" data-original="#ffa1ac"/>
    </g>
    <path d="M464.5 70H399V57.5C399 25.794 373.206 0 341.5 0h-50C259.794 0 234 25.794 234 57.5V70h-65.5c-26.191 0-47.5 21.309-47.5 47.5v10c0 9.649 7.851 17.5 17.5 17.5h2.5v22h-30.872c-9.273 0-17.856 4.621-22.959 12.362s-5.968 17.45-2.314 25.972l17.27 40.305c-3.972.191-7.136 3.462-7.136 7.482 0 1.642.534 3.156 1.429 4.391-33.031 28.337-57.829 58.532-73.808 89.925C4.517 382.977-2.773 420.947.941 460.295c1.341 14.2 7.949 27.305 18.608 36.898A57.608 57.608 0 0 0 58.148 512H454.5c20.678 0 37.5-16.822 37.5-37.5V241.65c0-4.143-3.357-7.5-7.5-7.5s-7.5 3.357-7.5 7.5V474.5c0 12.406-10.094 22.5-22.5 22.5H255.632c10.536-9.576 17.071-22.598 18.403-36.707.412-4.377.694-8.792.839-13.124a7.5 7.5 0 0 0-7.247-7.745c-4.111-.119-7.607 3.106-7.745 7.247a202.55 202.55 0 0 1-.78 12.214C257.049 480.614 238.877 497 216.828 497H58.148c-22.048 0-40.222-16.386-42.273-38.115-3.442-36.471 3.321-71.679 20.101-104.644 16.636-32.681 43.604-64.168 80.164-93.621h42.684c57.743 46.53 91.117 97.806 99.174 152.443a7.5 7.5 0 1 0 14.84-2.188c-2.211-14.993-6.182-29.72-11.868-44.159.006-.059.02-.116.02-.176V274.5c0-15.163-12.336-27.5-27.5-27.5-7.343 0-14.248 2.861-19.444 8.058-5.195 5.195-8.056 12.101-8.056 19.442v8.979c-8.392-8.808-17.532-17.466-27.434-25.964a7.454 7.454 0 0 0 1.432-4.395c0-4.019-3.163-7.29-7.135-7.482l17.268-40.304a27.426 27.426 0 0 0-2.314-25.973A27.427 27.427 0 0 0 164.848 167H156v-22h321v61.65c0 4.143 3.357 7.5 7.5 7.5s7.5-3.357 7.5-7.5V145h2.5c9.649 0 17.5-7.851 17.5-17.5v-10c0-26.191-21.309-47.5-47.5-47.5zM220.99 274.5c0-3.336 1.301-6.474 3.663-8.836A12.417 12.417 0 0 1 233.49 262c6.893 0 12.5 5.607 12.5 12.5v61.434c-7.052-12.092-15.4-23.952-25-35.571zm-45.706-86.882c2.354 3.57 2.737 7.874 1.05 11.808l-19.792 46.194h-38.106l-19.794-46.196c-1.686-3.932-1.303-8.234 1.051-11.806 2.354-3.57 6.158-5.618 10.436-5.618h54.72c4.277 0 8.081 2.048 10.435 5.618zM249 57.5c0-23.435 19.065-42.5 42.5-42.5h50c23.435 0 42.5 19.065 42.5 42.5V70h-15V57.5c0-15.163-12.337-27.5-27.5-27.5h-50C276.337 30 264 42.337 264 57.5V70h-15zm248 70c0 1.379-1.121 2.5-2.5 2.5h-356a2.503 2.503 0 0 1-2.5-2.5v-10c0-17.921 14.58-32.5 32.5-32.5h127.67c4.143 0 7.5-3.357 7.5-7.5s-3.357-7.5-7.5-7.5H279V57.5c0-6.893 5.607-12.5 12.5-12.5h50c6.893 0 12.5 5.607 12.5 12.5V70h-22.83c-4.143 0-7.5 3.357-7.5 7.5s3.357 7.5 7.5 7.5H464.5c17.921 0 32.5 14.579 32.5 32.5z" data-original="#000000"/>
    <path d="M403.5 462c15.163 0 27.5-12.337 27.5-27.5v-160c0-15.163-12.337-27.5-27.5-27.5S376 259.337 376 274.5v160c0 15.163 12.337 27.5 27.5 27.5zM391 274.5c0-6.893 5.607-12.5 12.5-12.5s12.5 5.607 12.5 12.5v160c0 6.893-5.607 12.5-12.5 12.5s-12.5-5.607-12.5-12.5zm-100 160c0 15.163 12.337 27.5 27.5 27.5s27.5-12.337 27.5-27.5v-160c0-15.163-12.337-27.5-27.5-27.5S291 259.337 291 274.5zm15-160c0-6.893 5.607-12.5 12.5-12.5s12.5 5.607 12.5 12.5v160c0 6.893-5.607 12.5-12.5 12.5s-12.5-5.607-12.5-12.5zm-98.176 113.372h-.006a7.5 7.5 0 0 0-7.5 7.494l-.009 11.877a7.5 7.5 0 0 0 7.494 7.506h.006a7.5 7.5 0 0 0 7.5-7.494l.009-11.877a7.499 7.499 0 0 0-7.494-7.506zm-115.825-3.58a7.503 7.503 0 0 0-9.355-4.997c-6.222 1.89-14.213 2.799-16.487 1.903a7.5 7.5 0 0 0-10.988 10.201c3.401 3.902 8.89 5.151 14.519 5.151 1.344 0 2.694-.074 4.027-.197l-.008 10.765a7.5 7.5 0 0 0 7.494 7.506h.006a7.5 7.5 0 0 0 7.5-7.494l.009-11.876a7.479 7.479 0 0 0-.324-2.186 7.5 7.5 0 0 0 3.607-8.776zm128.011-11.268c-9.857-13.385-26.76-6.971-34.322-1.709-3.39 2.358-4.221 7.002-1.878 10.402 2.343 3.399 7.009 4.258 10.418 1.929.099-.068 10.068-6.667 13.704-1.728a7.49 7.49 0 0 0 6.045 3.054 7.499 7.499 0 0 0 6.033-11.948zm-66.316 37.411c-6.204 0-20.472-.022-29.859-3.86a7.498 7.498 0 0 0-9.78 4.104 7.5 7.5 0 0 0 4.104 9.78c12.104 4.948 27.847 4.976 35.516 4.976h.25c4.142 0 7.5-3.357 7.5-7.5s-3.358-7.5-7.5-7.5zm232.754-208.323v-12c0-4.143-3.357-7.5-7.5-7.5s-7.5 3.357-7.5 7.5v12c0 4.143 3.357 7.5 7.5 7.5s7.5-3.357 7.5-7.5zm-114.751-28.864a7.5 7.5 0 0 0-10.292-2.565c-4.422 2.658-10.286 2.658-14.708 0a7.501 7.501 0 0 0-7.727 12.857 29.197 29.197 0 0 0 8.308 3.366 7.45 7.45 0 0 0-.728 3.206v12c0 4.143 3.358 7.5 7.5 7.5s7.5-3.357 7.5-7.5v-12a7.464 7.464 0 0 0-.727-3.206 29.156 29.156 0 0 0 8.308-3.366 7.499 7.499 0 0 0 2.566-10.292zm28.571 39.09c6.203 0 20.472.022 29.858 3.86.929.38 1.89.56 2.835.56a7.502 7.502 0 0 0 2.841-14.444c-12.103-4.948-27.847-4.976-35.515-4.976h-.251c-4.143 0-7.5 3.357-7.5 7.5s3.357 7.5 7.5 7.5z" data-original="#000000"/>
  </g>
</svg>
