<svg xmlns="http://www.w3.org/2000/svg" style="enable-background:new 0 0 512 512" xml:space="preserve" viewBox="0 0 512 512">
  <g xmlns="http://www.w3.org/2000/svg">
    <path d="m57.217 58.505 6.397 17.988c.274.77.816 1.381 1.5 1.689l15.982 7.201c2.258 1.017 2.258 4.615 0 5.632l-15.982 7.201c-.684.308-1.227.919-1.5 1.689l-6.397 17.988c-.904 2.541-4.1 2.541-5.004 0l-6.397-17.988c-.274-.77-.816-1.381-1.5-1.689l-15.982-7.201c-2.258-1.017-2.258-4.615 0-5.632l15.982-7.201c.684-.308 1.227-.919 1.5-1.689l6.397-17.988c.904-2.542 4.1-2.542 5.004 0z" data-original="#000000"/>
    <ellipse cx="472.584" cy="53.656" rx="8.124" ry="8.123" transform="rotate(-80.8 472.557 53.725)" data-original="#000000"/>
    <circle cx="442.383" cy="130.8" r="14.243" data-original="#000000"/>
    <path d="m382.915 12.856 8.624 24.25c.369 1.038 1.1 1.861 2.023 2.277l21.545 9.707c3.044 1.371 3.044 6.221 0 7.593l-21.545 9.707c-.923.416-1.653 1.238-2.023 2.277l-8.624 24.25c-1.219 3.426-5.527 3.426-6.746 0l-8.624-24.25c-.369-1.038-1.1-1.861-2.023-2.277l-21.545-9.707c-3.044-1.371-3.044-6.221 0-7.593l21.545-9.707c.922-.416 1.654-1.238 2.023-2.277l8.624-24.25c1.219-3.425 5.527-3.425 6.746 0z" data-original="#000000"/>
    <circle cx="286.064" cy="206.07" transform="rotate(-62.82 286.044 205.98)" data-original="#000000" r="9.09"/>
    <path d="M187.007 227.269a9.091 9.091 0 0 0 17.778-3.804 9.091 9.091 0 0 0-17.778 3.804zm61.979 33.491c-4.863 0-9.646-1.539-13.834-4.506-5.432-3.848-9.215-9.666-10.652-16.381a6.02 6.02 0 0 1 4.626-7.146l36.05-7.715a6.022 6.022 0 0 1 7.146 4.627c1.437 6.715.366 13.572-3.015 19.306-3.478 5.898-8.963 9.91-15.444 11.297-1.62.347-3.253.518-4.877.518zm-10.283-17.771a14.14 14.14 0 0 0 3.409 3.441c2.807 1.988 6.086 2.712 9.234 2.038 3.149-.674 5.845-2.676 7.592-5.639a14.14 14.14 0 0 0 1.702-4.535zm-2.719 185.752a6.02 6.02 0 0 1-6.02-6.02v-12.14a6.02 6.02 0 0 1 12.04 0v12.14a6.021 6.021 0 0 1-6.02 6.02zm47.039-12.339a6.02 6.02 0 0 1-6.02-6.02v-12.139a6.02 6.02 0 0 1 12.04 0v12.139a6.021 6.021 0 0 1-6.02 6.02zM267.6 459.586a6.02 6.02 0 0 1-6.02-6.02v-12.139a6.02 6.02 0 0 1 12.04 0v12.139a6.02 6.02 0 0 1-6.02 6.02z" data-original="#000000"/>
    <path d="M479.684 339.427c-2.236-5.071-8.16-7.368-13.227-5.133l-35.037 15.444 6.068-37.806c.878-5.47-2.845-10.617-8.316-11.495-13.133-2.109-26.483-.234-38.604 5.424a9.924 9.924 0 0 0-1.637.963c-28.669 20.739-28.249 56.651-23.846 80.823-9.087 1.782-19.193 3.709-27.798 4.024-6.883.249-10.286-.622-11.918-1.369-.78-6.519-2.489-14.295-3.37-17.678-1.969-7.55-4.958-15.536-8.048-23.415-.339-.883-.686-1.764-1.03-2.645 15.216-5.733 28.38-10.993 38.235-16.824 16.347-9.672 22.491-21.04 18.261-33.787-1.951-5.879-5.845-10.354-11.263-12.942-2.143-1.024-4.463-1.722-6.953-2.143 6.166-9.319 10.111-19.716 11.591-30.845 3.256-24.483-8.288-48.336-30.27-63.049-2.761-7.246-9.883-24.968-18.369-38.516a73.073 73.073 0 0 0-2.388-3.562c1.595-2.571 2.346-5.639 2.056-8.858-.527-5.826-4.313-10.564-9.88-12.365a41.35 41.35 0 0 1-3.731-1.413 57.416 57.416 0 0 0 1.321-4.598c5.493-22.758-9.634-55.376-23.287-58.673-9.634-2.324-26.578 8.023-37.649 22.312 1.773-9.318 1.557-19.056-5.056-28.781-.027-.04-.059-.075-.087-.115-.748-13.732-4.825-29.617-8.507-42.48A12.811 12.811 0 0 0 214.477 0h-.031a12.814 12.814 0 0 0-12.16 8.728c-8.586 17.483-14.812 32.962-11.533 56.164-2.02 3.111-3.379 6.345-4.26 9.599-13.488-1.931-24.402.815-32.555 8.246-5.847 5.329-9.412 12.478-11.47 20.254-10.723-4.026-21.121-4.976-26.775-1.571-8.893 5.358-13.75 26.137-10.898 44.813a32.569 32.569 0 0 0-4.976 3.927c-13.143 12.678-12.398 32.822-10.625 44.252-12.344 7.245-33.887 26.03-34.267 69.005-.272 30.793 12.133 48.518 22.587 57.965a63.618 63.618 0 0 0 9.994 7.395c-5.28 8.178-9.993 20.405-6.689 35.842 3.769 17.61 17.918 29.097 28.404 35.391.896 2.732 2.455 5.421 4.91 7.957.73.754 1.497 1.414 2.283 2.028.405 2.963.913 5.925 1.545 8.879 7.131 33.316 17.752 54.792 34.442 69.631 17.732 15.767 42.438 23.496 75.289 23.495 3.99 0 8.104-.114 12.335-.341.091-.005.183-.011.274-.019l17.388-1.414c.114-.009.227-.021.341-.034 75.632-8.758 131.528-57.169 143.671-89.476 1.996.063 4.07.102 6.223.102 5.72 0 11.922-.256 18.219-.948 43.312-4.764 55.647-25.977 58.369-42.935a66.62 66.62 0 0 0-4.828-37.508zm-174.545-11.38c-1.87-4.066-3.812-8.016-5.858-11.747 8.325-2.447 17.69-6.104 25.846-10.783l4.931 12.442c-7.634 3.45-16.487 6.904-24.919 10.088zm35.726-15.499-4.404-11.111c5.88-1.226 10.527-1.523 13.043-.322.334.16.576.275.868 1.157.986 2.97-2.958 6.526-9.507 10.276zm-39.036-175.426c.051.571-.038 1.623-1.217 2.257-18.52 9.956-31.93 16.234-37.761 17.677-13.482 3.335-27.306-.263-36.974-9.63-5.781-5.601-8.872-13.119-8.702-21.171.168-8.043 3.593-15.439 9.641-20.825 5.366-4.779 12.171-7.178 18.982-7.178 6.557 0 13.123 2.225 18.413 6.69a28.894 28.894 0 0 1 5.662 6.424c7.316 11.357 18.099 19.795 30.361 23.761 1.268.412 1.543 1.427 1.595 1.995zm-95.344.063a40.806 40.806 0 0 0 2.313 6.502c-4.244-.456-7.506-1.439-9.663-2.511zm66.829-57.774c3.927 4.975 9.981 17.864 9.338 29.152a48.695 48.695 0 0 1-2.659-3.716 40.951 40.951 0 0 0-8.016-9.103 40.091 40.091 0 0 0-11.542-6.804c4.582-4.586 9.613-8.036 12.879-9.529zm-60.575-44.064c1.618 7.549 2.78 15.153 2.755 21.486l-5.15 3.066c-1.029-9.339 0-17.008 2.395-24.552zm-4.866 40.034 12.976-7.724c1.16 3.695.723 8.112-1.253 15.3a9.974 9.974 0 0 0-.287 1.554l-13.355 7.892c-1.66-9.375-.117-14.112 1.919-17.022zm-8.737 34.981c.211-.094.421-.194.625-.314l14.064-8.312c-5.078 6.422-8.065 14.149-8.602 22.434l-10.131 5.5c-.285-7.208 1.05-13.595 4.044-19.308zm-31.674-12.804c4.414-4.017 11.465-4.164 18.511-2.812a89.342 89.342 0 0 0 1.164 5.77 9.985 9.985 0 0 0 1.674 3.632c-2.29 4.224-3.895 8.744-4.827 13.536l-1.203.258a84.514 84.514 0 0 0-12.669 3.767c-2.663-3.162-5.833-6.076-9.298-8.685.978-6.58 3.031-12.176 6.648-15.466zm-40.939 21.837c7.186.856 23.69 7.122 30.237 17.991.335.557.646 1.112.945 1.666 2.593 4.801 8.55 6.646 13.404 4.159a64.055 64.055 0 0 1 12.794-4.9c.029.18.052.359.083.54.013.268.049.552.08.832.007.1.017.199.029.298l.002.025.006.068.001.008v.006l.002.008c.007.053.02.103.028.156.013.079.025.158.042.236 1.933 11.443 17.164 15.509 29.861 15.509l.247-.001c1-.004 2.019-.044 3.044-.1.059.057.113.118.172.175 9.576 9.278 22.217 14.249 35.393 14.249 4.256 0 8.569-.519 12.851-1.579 5.565-1.378 15.388-5.682 29.251-12.804a57.32 57.32 0 0 1 2.151 3.171c9.526 15.208 17.616 37.668 17.696 37.891a10.032 10.032 0 0 0 4.251 5.204c17.018 10.304 26.141 27.612 23.805 45.172-1.884 14.168-8.963 26.352-21.041 36.215-10.46 8.542-29.878 14.818-39.873 16.065a10.032 10.032 0 0 0-6.821 15.927c6.293 8.496 11.979 20.685 16.987 33.04.417 1.059 1.756 4.45 2.009 5.087l-114.726 24.256c4.068-4.173 8.277-8.572 12.642-13.138l4.392-4.591a6.02 6.02 0 0 0-8.692-8.329l-4.401 4.599c-9.873 10.325-19.502 20.394-28.206 28.42l-19.61-18.409c7.529-8.969 17.177-19.021 27.354-29.621l4.403-4.59a6.02 6.02 0 0 0-8.692-8.329l-4.395 4.581c-2.056 2.142-4.073 4.243-6.049 6.31 4.048-9.459 8.914-17.796 14.531-24.749a10.035 10.035 0 0 0 .749-11.551c-7.262-11.839-12.044-24.761-15.993-43.206l-.04-.18-9.717-41.64c-2.66-12.515-1.553-25.374 3.204-37.19a10.032 10.032 0 0 0-3.781-12.12c-3.296-2.175-6.268-5.437-8.833-9.694-6.55-10.871-4.378-28.39-1.776-35.143zm1.507 282.551h-.027c-2.034 0-3.645-.726-5.218-2.352-4.85-5.01-1.957-13.234 5.341-23.54l17.879 16.785c-7.096 5.623-13.254 9.093-17.975 9.107zm-17.986-68.967c3.045-2.378 4.497-6.284 3.665-10.058-.833-3.773-3.715-6.724-7.479-7.6-1.291-.326-31.623-8.474-31.239-51.728.382-43.292 26.852-53.364 28.671-54.003 5.243-1.548 8.062-6.973 6.606-12.249-1.539-5.581-4.154-22.233 1.877-30.841 2.304 3.566 4.855 6.739 7.664 9.443-4.098 13.549-4.698 27.887-1.701 41.889l.04.18 9.718 41.643c3.815 17.799 8.428 31.205 15.031 43.413-14.514 20.466-21.865 45.124-25.472 67.343-.223.326-.457.655-.672.979-1.008 1.512-2.556 3.842-4.058 6.688-5.474-4.369-10.675-10.276-12.256-17.66-3.546-16.572 9.129-27.052 9.605-27.439zm273.125 80.005c-9.459 27.178-62.44 69.686-127.279 77.257l-17.076 1.389c-4.016.214-7.865.32-11.559.32-60.799-.002-79.271-28.671-89.673-77.274a82.576 82.576 0 0 1-.488-2.525c7.988-3.021 16.729-9.62 26.375-18.501l135.066-28.557c1.603 4.384 3.004 8.596 4.046 12.594 1.006 3.858 2.907 13.109 3.115 17.81a10.035 10.035 0 0 0 1.768 5.26c11.35 16.432 39.839 10.835 62.728 6.338 4.584-.901 10.452-2.053 14.016-2.461.661 2.647-.278 6.164-1.039 8.35zm81.532-39.227c-3.844 23.951-37.844 27.349-60.814 26.847-1.279-5.943-4.286-9.98-6.678-12.37-3.067-3.064-6.892-4.021-12.3-3.763-3.544-18.932-4.336-46.118 15.021-60.826a46.368 46.368 0 0 1 15.982-3.899l-7.226 45.021a10.033 10.033 0 0 0 13.953 10.77l41.737-18.398a46.63 46.63 0 0 1 .325 16.618z" data-original="#000000"/>
    <path d="M196.54 479.077a9.98 9.98 0 0 1-5.176-1.446c-9.726-5.873-18.116-13.959-24.262-23.383-3.027-4.641-1.717-10.857 2.925-13.884 4.643-3.027 10.858-1.717 13.884 2.924 4.505 6.909 10.669 12.844 17.825 17.165 4.743 2.864 6.266 9.031 3.403 13.774a10.03 10.03 0 0 1-8.599 4.85zm-30.931-45.67c-4.854 0-9.12-3.53-9.898-8.476a50.617 50.617 0 0 1-.474-4.053c-.417-5.525 3.723-10.343 9.248-10.761 5.547-.408 10.342 3.723 10.761 9.248.06.791.157 1.615.288 2.45.86 5.473-2.88 10.608-8.353 11.469-.529.083-1.054.123-1.572.123zm95.619-303.409a10.013 10.013 0 0 1-7.877-3.812c-4.448-5.626-8.699-6.091-9.711-6.304-1.013-.212-9.819-1.383-7.663-12.32 1.714-8.694 9.891-7.68 9.891-7.68 1.399.086 13.217 1.201 23.224 13.86 3.436 4.347 2.698 10.656-1.649 14.092a9.987 9.987 0 0 1-6.215 2.164z" data-original="#000000"/>
  </g>
</svg>
